<?xml version="1.0" encoding="utf-8" standalone="no"?>
<!DOCTYPE svg PUBLIC "-//W3C//DTD SVG 1.1//EN"
  "http://www.w3.org/Graphics/SVG/1.1/DTD/svg11.dtd">
<svg xmlns:xlink="http://www.w3.org/1999/xlink" width="144pt" height="144pt" viewBox="0 0 144 144" xmlns="http://www.w3.org/2000/svg" version="1.1">
 <metadata>
  <rdf:RDF xmlns:dc="http://purl.org/dc/elements/1.1/" xmlns:cc="http://creativecommons.org/ns#" xmlns:rdf="http://www.w3.org/1999/02/22-rdf-syntax-ns#">
   <cc:Work>
    <dc:type rdf:resource="http://purl.org/dc/dcmitype/StillImage"/>
    <dc:date>2022-06-22T15:11:38.030761</dc:date>
    <dc:format>image/svg+xml</dc:format>
    <dc:creator>
     <cc:Agent>
      <dc:title>Matplotlib v3.5.2, https://matplotlib.org/</dc:title>
     </cc:Agent>
    </dc:creator>
   </cc:Work>
  </rdf:RDF>
 </metadata>
 <defs>
  <style type="text/css">*{stroke-linejoin: round; stroke-linecap: butt}</style>
 </defs>
 <g id="figure_1">
  <g id="patch_1">
   <path d="M 0 144 
L 144 144 
L 144 0 
L 0 0 
L 0 144 
z
" style="fill: none"/>
  </g>
  <g id="axes_1">
   <g id="patch_2">
    <path d="M 18 126 
L 129.6 126 
L 129.6 17.28 
L 18 17.28 
z
" style="fill: #ffffff"/>
   </g>
   <g id="patch_3">
    <path d="M 117.057644 92.495194 
C 120.263949 92.495194 123.339365 91.25419 125.606565 89.045498 
C 127.873765 86.836806 129.147644 83.840756 129.147644 80.717194 
C 129.147644 77.593632 127.873765 74.597582 125.606565 72.388891 
C 123.339365 70.180199 120.263949 68.939194 117.057644 68.939194 
C 113.851338 68.939194 110.775923 70.180199 108.508723 72.388891 
C 106.241523 74.597582 104.967644 77.593632 104.967644 80.717194 
C 104.967644 83.840756 106.241523 86.836806 108.508723 89.045498 
C 110.775923 91.25419 113.851338 92.495194 117.057644 92.495194 
z
" clip-path="url(#p25a3135c72)" style="fill: #4d4d4d; opacity: 0.5; stroke: #4d4d4d; stroke-linejoin: miter"/>
   </g>
   <g id="patch_4">
    <path d="M 32.039328 76.344148 
C 33.672361 76.344148 35.238729 75.906502 36.393457 75.127596 
C 37.548186 74.348691 38.196996 73.29212 38.196996 72.190582 
C 38.196996 71.089043 37.548186 70.032472 36.393457 69.253567 
C 35.238729 68.474661 33.672361 68.037015 32.039328 68.037015 
C 30.406296 68.037015 28.839928 68.474661 27.685199 69.253567 
C 26.530471 70.032472 25.88166 71.089043 25.88166 72.190582 
C 25.88166 73.29212 26.530471 74.348691 27.685199 75.127596 
C 28.839928 75.906502 30.406296 76.344148 32.039328 76.344148 
z
" clip-path="url(#p25a3135c72)" style="fill: #8200ff; opacity: 0.5; stroke: #8200ff; stroke-linejoin: miter"/>
   </g>
   <g id="patch_5">
    <path d="M 48.725317 66.555507 
C 46.985595 66.576718 45.322563 67.038318 44.102483 67.838645 
C 42.882403 68.638973 42.20489 69.712683 42.219158 70.823305 
C 42.233426 71.933927 42.93831 72.990783 44.178568 73.761113 
C 45.418826 74.531443 47.093196 74.952352 48.832918 74.931141 
C 50.57264 74.909929 52.235672 74.448329 53.455752 73.648002 
C 54.675832 72.847675 55.353345 71.773964 55.339077 70.663342 
C 55.324809 69.55272 54.619925 68.495864 53.379667 67.725534 
C 52.139409 66.955205 50.465039 66.534295 48.725317 66.555507 
z
" clip-path="url(#p25a3135c72)" style="fill: #8200ff; opacity: 0.5; stroke: #8200ff; stroke-linejoin: miter"/>
   </g>
   <g id="patch_6">
    <path d="M 65.933878 66.331345 
C 64.093576 66.353328 62.334233 66.837853 61.043324 67.678208 
C 59.752416 68.518563 59.035339 69.646138 59.050021 70.812596 
C 59.064703 71.979054 59.809946 73.08916 61.121618 73.898425 
C 62.43329 74.707691 64.204299 75.150044 66.044601 75.12806 
C 67.884904 75.106076 69.644247 74.621551 70.935155 73.781196 
C 72.226063 72.940841 72.943141 71.813267 72.928459 70.646809 
C 72.913776 69.480351 72.168534 68.370245 70.856862 67.560979 
C 69.54519 66.751714 67.77418 66.309361 65.933878 66.331345 
z
" clip-path="url(#p25a3135c72)" style="fill: #8200ff; opacity: 0.5; stroke: #8200ff; stroke-linejoin: miter"/>
   </g>
   <g id="patch_7">
    <path d="M 85.47947 70.235733 
C 83.545982 70.24757 81.694852 70.790217 80.333769 71.744164 
C 78.972687 72.698111 78.212778 73.985471 78.221404 75.322719 
C 78.23003 76.659967 79.006486 77.937922 80.379768 78.875129 
C 81.753049 79.812336 83.611034 80.332277 85.544521 80.32044 
C 87.478009 80.308603 89.329139 79.765956 90.690222 78.812009 
C 92.051304 77.858062 92.811213 76.570702 92.802587 75.233454 
C 92.793961 73.896207 92.017505 72.618252 90.644223 71.681045 
C 89.270941 70.743837 87.412957 70.223897 85.47947 70.235733 
z
" clip-path="url(#p25a3135c72)" style="fill: #8200ff; opacity: 0.5; stroke: #8200ff; stroke-linejoin: miter"/>
   </g>
   <g id="patch_8">
    <path d="M 105.85288 74.149618 
C 103.830918 74.35139 101.96002 75.196595 100.652228 76.499085 
C 99.344437 77.801576 98.706528 79.455009 98.878994 81.095236 
C 99.051459 82.735463 100.020218 84.228566 101.571913 85.245707 
C 103.123607 86.262848 105.131548 86.720982 107.15351 86.519209 
C 109.175472 86.317436 111.04637 85.472232 112.354162 84.169741 
C 113.661953 82.867251 114.299862 81.213818 114.127396 79.573591 
C 113.954931 77.933364 112.986172 76.44026 111.434477 75.423119 
C 109.882783 74.405979 107.874842 73.947845 105.85288 74.149618 
z
" clip-path="url(#p25a3135c72)" style="fill: #8200ff; opacity: 0.5; stroke: #8200ff; stroke-linejoin: miter"/>
   </g>
   <g id="patch_9">
    <path d="M 108.173542 74.386361 
C 106.13676 74.63039 104.267388 75.531932 102.977136 76.892433 
C 101.686883 78.252933 101.081092 79.961313 101.293181 81.641323 
C 101.50527 83.321332 102.517923 84.835805 104.108115 85.851196 
C 105.698307 86.866587 107.736205 87.299995 109.772988 87.055966 
C 111.80977 86.811937 113.679141 85.910395 114.969394 84.549894 
C 116.259647 83.189394 116.865438 81.481014 116.653349 79.801004 
C 116.44126 78.120995 115.428607 76.606522 113.838415 75.591131 
C 112.248223 74.57574 110.210324 74.142332 108.173542 74.386361 
z
" clip-path="url(#p25a3135c72)" style="fill: #8200ff; opacity: 0.5; stroke: #8200ff; stroke-linejoin: miter"/>
   </g>
   <g id="matplotlib.axis_1">
    <g id="xtick_1">
     <g id="line2d_1">
      <defs>
       <path id="md517d4a52b" d="M 0 0 
L 0 3.5 
" style="stroke: #000000; stroke-width: 0.8"/>
      </defs>
      <g>
       <use xlink:href="#md517d4a52b" x="27.3" y="126" style="stroke: #000000; stroke-width: 0.8"/>
      </g>
     </g>
     <g id="text_1">
      <text style="font: 14px 'CMU Serif'; text-anchor: middle" x="27.3" y="142.714687" transform="rotate(-0, 27.3, 142.714687)">0</text>
     </g>
    </g>
    <g id="xtick_2">
     <g id="line2d_2">
      <g>
       <use xlink:href="#md517d4a52b" x="120.3" y="126" style="stroke: #000000; stroke-width: 0.8"/>
      </g>
     </g>
     <g id="text_2">
      <text style="font: 14px 'CMU Serif'; text-anchor: middle" x="120.3" y="142.714687" transform="rotate(-0, 120.3, 142.714687)">200</text>
     </g>
    </g>
    <g id="text_3">
     <text style="font: 14px 'CMU Serif'; text-anchor: middle" x="73.8" y="159.929375" transform="rotate(-0, 73.8, 159.929375)">world x [cm]</text>
    </g>
   </g>
   <g id="matplotlib.axis_2">
    <g id="ytick_1">
     <g id="line2d_3">
      <defs>
       <path id="mcd7a5cf430" d="M 0 0 
L -3.5 0 
" style="stroke: #000000; stroke-width: 0.8"/>
      </defs>
      <g>
       <use xlink:href="#mcd7a5cf430" x="18" y="116.94" style="stroke: #000000; stroke-width: 0.8"/>
      </g>
     </g>
     <g id="text_4">
      <text style="font: 14px 'CMU Serif'; text-anchor: end" x="11" y="121.797344" transform="rotate(-0, 11, 121.797344)">-100</text>
     </g>
    </g>
    <g id="ytick_2">
     <g id="line2d_4">
      <g>
       <use xlink:href="#mcd7a5cf430" x="18" y="71.64" style="stroke: #000000; stroke-width: 0.8"/>
      </g>
     </g>
     <g id="text_5">
      <text style="font: 14px 'CMU Serif'; text-anchor: end" x="11" y="76.497344" transform="rotate(-0, 11, 76.497344)">0.0</text>
     </g>
    </g>
    <g id="ytick_3">
     <g id="line2d_5">
      <g>
       <use xlink:href="#mcd7a5cf430" x="18" y="26.34" style="stroke: #000000; stroke-width: 0.8"/>
      </g>
     </g>
     <g id="text_6">
      <text style="font: 14px 'CMU Serif'; text-anchor: end" x="11" y="31.197344" transform="rotate(-0, 11, 31.197344)">100</text>
     </g>
    </g>
    <g id="text_7">
     <text style="font: 14px 'CMU Serif'; text-anchor: middle" x="-22.155" y="71.64" transform="rotate(-90, -22.155, 71.64)">world y [cm]</text>
    </g>
   </g>
   <g id="line2d_6">
    <path d="M 27.302202 71.64 
L 27.878102 71.639996 
L 29.472494 71.640232 
L 32.169915 71.666246 
L 35.312846 71.772339 
L 38.418616 71.958346 
L 41.253234 72.159546 
L 44.09235 72.361619 
L 46.940858 72.576635 
L 49.751215 72.79597 
L 52.484186 72.989837 
L 55.299402 73.172721 
L 58.133976 73.376924 
L 60.951944 73.599045 
L 63.751459 73.813698 
L 66.585614 74.029378 
L 69.51718 74.261883 
L 72.775627 74.550107 
L 76.130436 74.880472 
L 79.548481 75.249596 
L 82.858639 75.639308 
L 86.344018 76.092745 
L 89.844114 76.632034 
L 92.988812 77.213892 
" clip-path="url(#p25a3135c72)" style="fill: none; stroke: #0000ff; stroke-opacity: 0.9; stroke-width: 1.5; stroke-linecap: square"/>
   </g>
   <g id="patch_10">
    <path d="M 18 126 
L 18 17.28 
" style="fill: none; stroke: #000000; stroke-width: 0.8; stroke-linejoin: miter; stroke-linecap: square"/>
   </g>
   <g id="patch_11">
    <path d="M 18 126 
L 129.6 126 
" style="fill: none; stroke: #000000; stroke-width: 0.8; stroke-linejoin: miter; stroke-linecap: square"/>
   </g>
  </g>
 </g>
 <defs>
  <clipPath id="p25a3135c72">
   <rect x="18" y="17.28" width="111.6" height="108.72"/>
  </clipPath>
 </defs>
</svg>
